HIERARCHY
ROOT Hips
{
	OFFSET -8.665500 -1.496397 44.816700
	CHANNELS 6 Xposition Yposition Zposition Zrotation Xrotation Yrotation
	JOINT Chest
	{
		OFFSET -0.698600 0.806100 5.350899
		CHANNELS 6 Xposition Yposition Zposition Zrotation Xrotation Yrotation
		JOINT Chest2
		{
			OFFSET 0.000000 0.000000 4.409100
			CHANNELS 6 Xposition Yposition Zposition Zrotation Xrotation Yrotation
			JOINT Neck
			{
				OFFSET 0.000000 0.000001 10.248299
				CHANNELS 6 Xposition Yposition Zposition Zrotation Xrotation Yrotation
				JOINT Head
				{
					OFFSET 0.000000 0.000000 2.173897
					CHANNELS 6 Xposition Yposition Zposition Zrotation Xrotation Yrotation
					End Site
					{
						OFFSET 0.000000 0.000001 9.966400
					}
				}
			}
			JOINT LeftCollar
			{
				OFFSET 2.100600 -0.520900 6.016098
				CHANNELS 6 Xposition Yposition Zposition Zrotation Xrotation Yrotation
				JOINT LeftShoulder
				{
					OFFSET 5.536700 0.000000 0.000000
					CHANNELS 6 Xposition Yposition Zposition Zrotation Xrotation Yrotation
					JOINT LeftElbow
					{
						OFFSET 0.000000 -0.000001 -12.362099
						CHANNELS 6 Xposition Yposition Zposition Zrotation Xrotation Yrotation
						JOINT LeftWrist
						{
							OFFSET 0.000000 -0.000001 -10.273201
							CHANNELS 6 Xposition Yposition Zposition Zrotation Xrotation Yrotation
							End Site
							{
								OFFSET 0.000000 -0.000000 -2.173901
							}
						}
					}
				}
			}
			JOINT RightCollar
			{
				OFFSET -2.899500 -1.655900 6.981701
				CHANNELS 6 Xposition Yposition Zposition Zrotation Xrotation Yrotation
				JOINT RightShoulder
				{
					OFFSET -4.387501 0.000000 0.000000
					CHANNELS 6 Xposition Yposition Zposition Zrotation Xrotation Yrotation
					JOINT RightElbow
					{
						OFFSET 0.000000 -0.000001 -10.858101
						CHANNELS 6 Xposition Yposition Zposition Zrotation Xrotation Yrotation
						JOINT RightWrist
						{
							OFFSET 0.000000 -0.000001 -12.079601
							CHANNELS 6 Xposition Yposition Zposition Zrotation Xrotation Yrotation
							End Site
							{
								OFFSET 0.000000 0.000000 -2.173901
							}
						}
					}
				}
			}
		}
	}
	JOINT LeftHip
	{
		OFFSET 2.190800 0.073900 -2.522499
		CHANNELS 6 Xposition Yposition Zposition Zrotation Xrotation Yrotation
		JOINT LeftKnee
		{
			OFFSET 0.000000 -0.000002 -20.305000
			CHANNELS 6 Xposition Yposition Zposition Zrotation Xrotation Yrotation
			JOINT LeftAnkle
			{
				OFFSET 0.000000 -0.000001 -16.771700
				CHANNELS 6 Xposition Yposition Zposition Zrotation Xrotation Yrotation
				End Site
				{
					OFFSET 0.000000 -8.738000 0.000001
				}
			}
		}
	}
	JOINT RightHip
	{
		OFFSET -2.029500 0.054300 -2.705200
		CHANNELS 6 Xposition Yposition Zposition Zrotation Xrotation Yrotation
		JOINT RightKnee
		{
			OFFSET 0.000000 -0.000002 -20.030399
			CHANNELS 6 Xposition Yposition Zposition Zrotation Xrotation Yrotation
			JOINT RightAnkle
			{
				OFFSET 0.000000 -0.000001 -17.032700
				CHANNELS 6 Xposition Yposition Zposition Zrotation Xrotation Yrotation
				End Site
				{
					OFFSET 0.000000 -8.823600 0.000001
				}
			}
		}
	}
}
MOTION
Frames: 8
Frame Time: 0.041667
15.824296 -17.829897 15.561899 2654.324510 -0.506951 -7.311208 -0.698599 0.806101 5.350894 -31.152336 -30.230352 13.563483 0.000000 0.000002 4.409101 10.231531 -3.866917 -0.615795 0.000002 -0.000003 10.248301 -15.231206 -16.813414 0.482396 0.000002 -0.000004 2.173896 -3.943772 -8.144133 -2.980864 2.100603 -0.520904 6.016103 -23.854777 9.391219 12.688670 5.536699 0.000006 0.000002 465.558316 238.302404 99.434386 -0.000001 0.000003 -12.362099 409.191770 -31.469963 382.273831 -0.000001 0.000000 -10.273201 2369.936197 204.532924 -152.936077 -2.899499 -1.655900 6.981703 9.697197 19.592500 3.833518 -4.387499 0.000001 0.000007 -349.587059 -496.308210 388.287594 0.000002 -0.000008 -10.858098 144.658243 -157.672308 153.322557 0.000004 0.000002 -12.079600 346.753350 -21.121779 -45.398205 2.190798 0.073901 -2.522500 -327.872002 -209.478842 -124.110083 0.000005 0.000002 -20.305008 -1049.302073 -34.787014 71.383038 -0.000005 0.000005 -16.771708 1557.129807 34.377172 68.183729 -2.029501 0.054295 -2.705202 -430.999963 -36.912217 -63.859858 -0.000001 -0.000004 -20.030396 347.878528 183.545775 31.461859 -0.000001 -0.000002 -17.032696 25.634270 57.347115 -135.117616
15.832198 -17.794300 15.577190 2653.976116 -0.496084 -7.154440 -0.698598 0.806099 5.350897 -30.963290 -30.421663 13.514559 -0.000001 0.000005 4.409101 10.287169 -3.893256 -0.621645 0.000003 0.000003 10.248299 -15.529267 -17.869383 0.321946 0.000000 0.000003 2.173900 -3.852538 -8.380580 -2.912867 2.100603 -0.520900 6.016099 -23.730140 9.567617 12.259631 5.536700 0.000008 0.000001 463.636793 238.770682 97.855103 0.000000 0.000005 -12.362095 408.526291 -30.343023 380.684418 0.000002 -0.000001 -10.273201 2369.995428 204.515726 -152.452035 -2.899498 -1.655896 6.981704 9.509014 19.684040 4.195295 -4.387502 -0.000000 -0.000003 -350.784336 -497.476555 387.504253 0.000002 -0.000003 -10.858097 145.537466 -158.594219 155.358773 0.000002 0.000000 -12.079601 346.290919 -21.014986 -45.060602 2.190805 0.073899 -2.522500 -327.320751 -209.615842 -124.007890 0.000004 0.000001 -20.305006 -1049.657789 -34.438357 71.029794 -0.000004 0.000005 -16.771704 1556.919437 34.815465 67.974917 -2.029499 0.054295 -2.705201 -430.638072 -36.938469 -63.696131 -0.000001 -0.000003 -20.030397 347.498196 183.668636 31.589826 -0.000003 -0.000004 -17.032700 25.034298 57.248617 -135.445411
15.839696 -17.763899 15.592592 2653.627284 -0.486726 -7.018331 -0.698603 0.806103 5.350903 -30.500394 -30.557635 13.614272 0.000000 0.000000 4.409098 10.230548 -3.910757 -0.620576 0.000004 -0.000003 10.248302 -15.842369 -18.783071 0.174286 0.000001 0.000000 2.173899 -3.841271 -8.473989 -3.100732 2.100605 -0.520905 6.016098 -23.559037 9.706372 11.717315 5.536699 0.000006 0.000001 461.800674 239.692867 96.441854 -0.000001 -0.000000 -12.362095 409.369929 -27.963979 379.947796 0.000000 -0.000004 -10.273211 2369.868441 204.666946 -150.704832 -2.899495 -1.655902 6.981703 9.332835 19.679670 4.713342 -4.387500 -0.000002 0.000001 -351.476207 -498.491849 387.278174 -0.000002 -0.000002 -10.858102 146.957449 -159.226135 157.337123 0.000004 0.000003 -12.079605 345.401355 -20.899476 -44.682380 2.190799 0.073901 -2.522499 -326.939873 -209.569260 -123.816836 0.000005 0.000002 -20.305004 -1049.785759 -34.192313 70.716152 -0.000005 0.000005 -16.771704 1556.724476 35.039693 67.975204 -2.029500 0.054298 -2.705199 -430.325605 -36.912224 -63.555211 0.000000 -0.000001 -20.030399 347.179472 183.810527 31.715662 -0.000000 -0.000000 -17.032696 23.901101 57.052608 -136.224571
15.851094 -17.735298 15.604794 2653.304244 -0.477186 -6.881446 -0.698601 0.806100 5.350901 -30.046514 -30.608639 13.671554 0.000002 0.000004 4.409105 10.187769 -3.905197 -0.617216 0.000003 -0.000001 10.248296 -16.582255 -19.734583 0.091473 -0.000001 0.000001 2.173896 -3.512195 -8.545099 -3.389557 2.100603 -0.520901 6.016104 -23.505874 9.772261 11.440862 5.536699 0.000005 0.000004 460.029305 239.846573 95.049445 -0.000000 0.000005 -12.362093 409.041233 -26.821663 378.788713 0.000001 -0.000000 -10.273196 2370.740301 204.563647 -150.014354 -2.899501 -1.655900 6.981708 9.079736 19.607996 5.310691 -4.387496 0.000005 0.000007 -352.033851 -499.295407 387.102938 -0.000004 -0.000003 -10.858099 147.984231 -159.877257 158.982174 0.000005 0.000000 -12.079600 344.561269 -20.860492 -44.369971 2.190803 0.073901 -2.522501 -326.436242 -209.642630 -123.709547 0.000004 0.000003 -20.305008 -1050.063120 -33.813644 70.490735 -0.000004 0.000005 -16.771706 1556.460448 35.104898 67.931108 -2.029499 0.054299 -2.705199 -429.939235 -36.955992 -63.376246 -0.000002 -0.000007 -20.030399 346.822362 183.893213 31.825772 -0.000001 -0.000003 -17.032700 23.908252 57.109063 -136.011825
15.863399 -17.709101 15.613194 2652.924595 -0.465842 -6.717441 -0.698599 0.806103 5.350897 -29.563419 -30.626032 13.834230 -0.000001 0.000001 4.409106 10.094613 -3.944667 -0.616408 0.000002 -0.000003 10.248299 -17.061597 -20.520940 -0.162553 -0.000001 0.000006 2.173894 -3.297318 -8.587768 -3.593508 2.100603 -0.520903 6.016102 -23.315102 9.910303 10.916342 5.536700 0.000008 -0.000001 458.406179 240.331134 93.865514 -0.000003 -0.000001 -12.362093 407.689866 -25.985946 377.481005 -0.000000 -0.000002 -10.273200 2372.399655 204.672725 -149.387958 -2.899500 -1.655902 6.981706 8.935918 19.560190 5.680682 -4.387500 0.000003 -0.000006 -351.674119 -500.356491 387.450404 -0.000002 0.000000 -10.858104 150.000202 -160.369044 160.533133 0.000001 0.000001 -12.079599 343.250364 -20.818555 -44.027843 2.190801 0.073902 -2.522501 -325.788549 -209.830979 -123.594076 0.000005 0.000000 -20.305004 -1050.458615 -33.406906 70.225860 -0.000004 0.000006 -16.771706 1556.167897 35.122742 67.884171 -2.029498 0.054302 -2.705199 -429.542565 -36.898116 -63.280664 -0.000000 -0.000006 -20.030394 346.589617 183.953742 31.911347 -0.000001 -0.000006 -17.032700 24.124080 57.191127 -135.716323
15.880795 -17.689398 15.617395 2652.694663 -0.454269 -6.548853 -0.698601 0.806106 5.350896 -29.353138 -30.627279 13.833281 -0.000002 -0.000000 4.409104 10.205468 -3.987128 -0.680094 -0.000005 0.000000 10.248297 -17.888040 -21.362960 -0.192769 0.000000 0.000001 2.173896 -2.859486 -8.672661 -3.885932 2.100597 -0.520899 6.016105 -23.343930 9.994337 10.798331 5.536699 0.000005 0.000002 456.839743 240.497081 92.664692 -0.000001 0.000003 -12.362092 405.758808 -25.530878 376.072948 0.000000 -0.000001 -10.273201 2374.612418 204.656360 -148.912686 -2.899503 -1.655897 6.981705 8.650568 19.628992 6.115609 -4.387500 0.000001 -0.000001 -351.741191 -501.247858 387.424913 -0.000001 -0.000001 -10.858105 151.657739 -160.738571 161.952938 0.000001 0.000001 -12.079599 341.900446 -20.751238 -43.678343 2.190801 0.073904 -2.522499 -325.519931 -209.867097 -123.353517 0.000005 0.000002 -20.305006 -1050.635872 -33.228092 69.931302 -0.000006 0.000003 -16.771706 1556.036430 35.125416 67.909866 -2.029504 0.054301 -2.705202 -429.321348 -36.756062 -63.238652 0.000001 -0.000003 -20.030399 346.523063 183.952977 31.962546 -0.000001 -0.000002 -17.032698 24.330032 57.273636 -135.512989
15.887494 -17.674999 15.625898 2652.552158 -0.448213 -6.462010 -0.698601 0.806100 5.350899 -29.055031 -30.630987 14.010630 -0.000004 0.000002 4.409100 10.192585 -4.066660 -0.687754 0.000002 -0.000002 10.248298 -18.248047 -21.993730 -0.320893 0.000000 -0.000001 2.173891 -2.799746 -8.784752 -3.986606 2.100603 -0.520902 6.016102 -23.450427 10.111353 10.800910 5.536698 0.000007 0.000006 455.264347 240.041261 91.275991 -0.000002 0.000001 -12.362094 405.680780 -24.540622 375.327829 0.000001 0.000000 -10.273205 2375.609953 204.563496 -148.295237 -2.899501 -1.655902 6.981701 8.490774 19.614237 6.373150 -4.387501 0.000002 0.000004 -351.966205 -501.920713 387.342295 -0.000000 -0.000003 -10.858105 153.214694 -161.008514 163.208941 0.000003 -0.000002 -12.079604 340.571755 -20.625086 -43.307849 2.190796 0.073900 -2.522501 -325.149625 -210.054231 -123.371016 0.000004 0.000002 -20.305004 -1051.039236 -33.120602 69.758464 -0.000005 0.000005 -16.771706 1555.998837 35.101445 67.939188 -2.029500 0.054298 -2.705202 -429.255150 -36.617156 -63.232730 0.000001 -0.000002 -20.030397 346.530112 183.993507 32.003439 -0.000001 -0.000002 -17.032698 24.327662 57.304857 -135.562234
15.895598 -17.663996 15.629597 2652.498391 -0.445104 -6.417319 -0.698601 0.806098 5.350901 -29.086907 -30.653083 14.159955 -0.000000 0.000002 4.409102 10.298307 -4.161531 -0.701766 -0.000002 -0.000002 10.248302 -18.302556 -22.656844 -0.593773 -0.000001 0.000003 2.173900 -2.874688 -8.876452 -3.966616 2.100599 -0.520903 6.016102 -23.243185 10.033008 10.228417 5.536699 0.000007 0.000003 454.027099 240.090329 90.476798 0.000000 0.000004 -12.362097 404.858480 -24.059456 374.641996 0.000000 -0.000001 -10.273196 2376.268274 204.590544 -148.691292 -2.899503 -1.655901 6.981706 8.231107 19.556006 6.657681 -4.387495 0.000002 -0.000001 -352.091443 -502.512535 387.333607 0.000000 -0.000001 -10.858114 154.329367 -161.376333 164.143147 0.000000 -0.000002 -12.079603 339.463188 -20.531238 -43.147750 2.190799 0.073896 -2.522501 -325.294316 -209.846730 -123.174894 0.000005 0.000003 -20.305008 -1050.949405 -33.385719 69.533334 -0.000006 0.000005 -16.771706 1556.225708 35.079937 67.987505 -2.029500 0.054297 -2.705201 -429.093138 -36.653107 -63.157011 0.000000 -0.000003 -20.030396 346.503064 183.905343 32.002455 -0.000001 -0.000003 -17.032696 24.822559 57.437260 -135.178296
